Coordinates
version=1
nRows=5
nColumns=40
inDegrees=yes

Units are S.I. units (second, meters, Newtons, ...)
Angles are in degrees.

endheader
time	pelvis_tilt	pelvis_list	pelvis_rotation	pelvis_tx	pelvis_ty	pelvis_tz	hip_flexion_r	hip_adduction_r	hip_rotation_r	knee_angle_r	knee_angle_r_beta	ankle_angle_r	subtalar_angle_r	mtp_angle_r	hip_flexion_l	hip_adduction_l	hip_rotation_l	knee_angle_l	knee_angle_l_beta	ankle_angle_l	subtalar_angle_l	mtp_angle_l	lumbar_extension	lumbar_bending	lumbar_rotation	arm_flex_r	arm_add_r	arm_rot_r	elbow_flex_r	pro_sup_r	wrist_flex_r	wrist_dev_r	arm_flex_l	arm_add_l	arm_rot_l	elbow_flex_l	pro_sup_l	wrist_flex_l	wrist_dev_l
     12.72000000	     -1.66647194	     -4.76633574	      4.61659934	      1.04172283	      0.93043230	      0.49591312	     10.69935454	      2.24106169	    -16.19993242	     19.03841242	     19.03841242	     11.41531675	     -2.73838751	     -4.01932852	     28.51352833	    -14.34154923	      1.41065183	     61.70945230	     61.70945230	      6.73994084	    -16.94304440	      7.93524146	     -9.58646481	      5.17931906	      2.68786951	     21.63905558	    -21.65154475	     -5.12269846	     60.98113156	     45.61267567	      0.00000000	      0.00000000	      8.45868420	     -8.79016447	    -12.26157213	     34.44923293	     45.69848609	      0.00000000	      0.00000000
     12.73321429	     -1.81541112	     -4.63352496	      4.95347429	      1.04059867	      0.93084367	      0.49611843	     10.21574981	      2.19855944	    -16.46392200	     18.44106663	     18.44106663	     11.49227923	     -2.60364756	     -4.03303391	     29.43297876	    -14.15530944	      1.22002275	     59.36265139	     59.36265139	      6.97889128	    -17.33296532	      8.09006329	     -9.59660427	      5.05559747	      2.45489160	     23.39354134	    -21.57573238	     -5.26743272	     62.49159373	     45.57273448	      0.00000000	      0.00000000	      7.23696041	     -8.64065028	    -12.10992082	     33.19946900	     45.66986438	      0.00000000	      0.00000000
     12.74642857	     -1.96687527	     -4.49715704	      5.28025857	      1.03943317	      0.93123189	      0.49629540	      9.74832832	      2.15980534	    -16.66097755	     17.85819150	     17.85819150	     11.55851125	     -2.55410938	     -4.08551172	     30.18248118	    -13.90781486	      1.02513615	     56.72023226	     56.72023226	      7.14181535	    -17.64856572	      8.32066058	     -9.65639648	      4.92053618	      2.30025843	     25.07476611	    -21.56250639	     -5.36371561	     64.15175810	     45.52620110	      0.00000000	      0.00000000	      6.10783991	     -8.47704657	    -11.90400126	     31.88885617	     45.63545072	      0.00000000	      0.00000000
     12.75964286	     -2.11243505	     -4.38947357	      5.60320967	      1.03830514	      0.93152796	      0.49638298	      9.28026286	      2.14985209	    -16.84851889	     17.27339801	     17.27339801	     11.59497255	     -2.50150642	     -4.20595500	     30.76529774	    -13.64160424	      0.84160251	     53.83263608	     53.83263608	      7.36613332	    -17.86589360	      8.64676840	     -9.69751509	      4.83350292	      2.17688669	     26.67489807	    -21.58688151	     -5.43636712	     65.98539687	     45.47305203	      0.00000000	      0.00000000	      5.09233746	     -8.31122806	    -11.61111244	     30.46340680	     45.59221337	      0.00000000	      0.00000000
     12.77285714	     -2.31798619	     -4.26682767	      5.87926768	      1.03709850	      0.93170157	      0.49641310	      8.92723724	      2.10818826	    -17.00371295	     16.76693905	     16.76693905	     11.63500170	     -2.49704503	     -4.29415682	     31.28149054	    -13.35656188	      0.55338028	     50.73564449	     50.73564449	      7.52846346	    -17.91872161	      9.11272728	     -9.70533114	      4.69406046	      2.27953899	     28.17117263	    -21.75177840	     -5.57610978	     67.45583327	     45.43520280	      0.00000000	      0.00000000	      4.13144533	     -8.08467489	    -11.36417117	     29.39568071	     45.55047725	      0.00000000	      0.00000000
